<svg width="142" height="149" viewBox="0 0 142 149" fill="none" xmlns="http://www.w3.org/2000/svg">
<path d="M137.728 101.425C140.444 93.9036 141.926 85.7925 141.926 77.3351C141.926 38.1437 110.154 6.37218 70.9629 6.37218C31.7715 6.37218 0 38.1437 0 77.3351C0 85.7925 1.48217 93.9036 4.19758 101.425H137.728Z" fill="#9D4AD3"/>
<path d="M36.7531 139.518C46.8998 145.112 58.5579 148.298 70.9629 148.298C83.3678 148.298 95.026 145.112 105.173 139.518H36.7531Z" fill="#4374D3"/>
<path d="M67.4939 148.214C61.8594 147.943 62.097 139.518 67.7383 139.518H36.7531C46.3714 144.82 57.3484 147.957 69.0315 148.27C68.5179 148.256 68.0053 148.239 67.4939 148.214Z" fill="#3957C9"/>
<path d="M137.831 89.3904V11.3233C137.831 5.06991 132.761 0 126.508 0H15.4179C9.16448 0 4.09457 5.06991 4.09457 11.3233V101.136C10.0866 117.968 22.2517 131.869 37.8664 140.118H104.059C119.674 131.869 131.839 117.968 137.83 101.136V89.3904H137.831Z" fill="#5294E5"/>
<path d="M29.9963 6.37897C30.2474 6.0452 30.2305 5.58697 29.9657 5.26565C27.2944 2.02072 30.493 0 30.493 0H15.4179C9.16448 0 4.09457 5.06991 4.09457 11.3233V101.136C9.10678 115.214 18.4376 127.239 30.493 135.624V10.3401C28.7743 8.62145 29.426 7.13589 29.9963 6.37897Z" fill="#4374D3"/>
<path d="M129.738 101.064C129.738 99.0867 128.135 97.4835 126.157 97.4835H15.7687C13.791 97.4835 12.1877 99.0867 12.1877 101.064V117.109C15.9803 122.703 20.5501 127.726 25.7433 132.025H116.183C121.376 127.726 125.946 122.703 129.739 117.109V101.064H129.738Z" fill="#61B6FF"/>
<path d="M30.493 97.4835H15.7687C13.791 97.4835 12.1877 99.0867 12.1877 101.064V117.109C15.9803 122.703 20.5501 127.726 25.7433 132.025H30.4942V97.4835H30.493Z" fill="#5294E5"/>
<path d="M15.7687 81.2985H126.157C128.135 81.2985 129.738 79.6952 129.738 77.7175V11.674C129.738 9.69631 128.135 8.09195 126.157 8.09195H15.7687C13.791 8.09195 12.1877 9.69631 12.1877 11.674V77.7175C12.1877 79.6952 13.791 81.2985 15.7687 81.2985Z" fill="#1D319B"/>
<path d="M30.493 8.09195H15.7687C13.791 8.09195 12.1877 9.69631 12.1877 11.674V77.7175C12.1877 79.6952 13.791 81.2985 15.7687 81.2985H30.493V8.09195Z" fill="#162680"/>
<path d="M126.157 8.09195H15.7687C13.791 8.09195 12.1877 9.69631 12.1877 11.674V23.0528H129.738V11.674C129.738 9.69631 128.135 8.09195 126.157 8.09195Z" fill="#4374D3"/>
<path d="M30.493 8.09195H15.7687C13.791 8.09195 12.1877 9.69631 12.1877 11.674V23.0516H30.493V8.09195Z" fill="#3957C9"/>
<path d="M127.31 92.8378H116.276C115.034 92.8378 114.028 91.8309 114.028 90.5897C114.028 89.3474 115.034 88.3416 116.276 88.3416H127.31C128.551 88.3416 129.558 89.3474 129.558 90.5897C129.558 91.8309 128.551 92.8378 127.31 92.8378Z" fill="#61B6FF"/>
<path d="M121.793 18.9977H105.931C104.688 18.9977 103.683 17.9908 103.683 16.7496C103.683 15.5073 104.688 14.5015 105.931 14.5015H121.793C123.034 14.5015 124.041 15.5073 124.041 16.7496C124.041 17.9908 123.034 18.9977 121.793 18.9977Z" fill="#5294E5"/>
<path d="M88.9457 18.9977H52.7062C51.465 18.9977 50.458 17.9908 50.458 16.7496C50.458 15.5073 51.465 14.5015 52.7062 14.5015H88.9457C90.188 14.5015 91.1938 15.5073 91.1938 16.7496C91.1938 17.9908 90.1868 18.9977 88.9457 18.9977Z" fill="#5294E5"/>
<path d="M25.6494 92.8378H15.3659C14.1236 92.8378 13.1178 91.8309 13.1178 90.5897C13.1178 89.3474 14.1236 88.3416 15.3659 88.3416H25.6494C26.8906 88.3416 27.8976 89.3474 27.8976 90.5897C27.8976 91.8309 26.8906 92.8378 25.6494 92.8378Z" fill="#61B6FF"/>
<path d="M51.99 109.135H64.4006V120.241H51.99V109.135Z" fill="#B9E9FD"/>
<path d="M19.2162 107.512C17.5779 107.512 16.2224 106.176 16.2224 104.515C16.2224 102.605 17.9784 101.206 19.8045 101.575C21.2267 101.863 22.2133 103.096 22.2133 104.515C22.2133 106.178 20.8579 107.512 19.2162 107.512Z" fill="#61B6FF"/>
<path d="M122.706 107.512C121.045 107.512 119.709 106.15 119.709 104.515C119.709 102.573 121.501 101.212 123.293 101.575C124.755 101.871 125.707 103.145 125.707 104.515C125.707 106.163 124.354 107.512 122.706 107.512Z" fill="#83D3FC"/>
<path d="M123.294 122.055C121.456 121.683 119.711 123.095 119.711 124.995C119.711 126.079 120.283 127.008 121.121 127.533C122.509 126.146 123.835 124.7 125.105 123.203C124.676 122.629 124.045 122.207 123.294 122.055Z" fill="#83D3FC"/>
<path d="M21.824 19.1471C20.5014 19.1471 19.4265 18.0722 19.4265 16.7496C19.4265 15.2041 20.8521 14.1089 22.2924 14.3974C23.4816 14.6519 24.2226 15.668 24.2226 16.7496C24.2215 18.0598 23.1489 19.1471 21.824 19.1471Z" fill="#F6159C"/>
<path d="M30.1501 19.1471C28.8388 19.1471 27.7527 18.0824 27.7527 16.7496C27.7527 15.4371 28.8173 14.3521 30.1501 14.3521C31.4875 14.3521 32.5476 15.4428 32.5476 16.7496C32.5476 18.0643 31.4728 19.1471 30.1501 19.1471Z" fill="#FBB362"/>
<path d="M38.4763 19.1471C37.1751 19.1471 36.0788 18.0903 36.0788 16.7496C36.0788 15.4122 37.1649 14.3521 38.4763 14.3521C39.8023 14.3521 40.8737 15.4258 40.8737 16.7496C40.8737 17.3787 40.6192 17.9987 40.1723 18.4433C39.714 18.9016 39.0929 19.1471 38.4763 19.1471Z" fill="#48D85C"/>
<path d="M19.8045 122.055C18.6255 121.817 17.4862 122.314 16.8209 123.202C18.0903 124.699 19.4164 126.146 20.8046 127.533C21.6475 127.003 22.2144 126.068 22.2144 124.995C22.2133 123.575 21.2233 122.343 19.8045 122.055Z" fill="#61B6FF"/>
<path d="M87.6966 122.489C86.4554 122.489 85.4496 121.483 85.4496 120.241V109.135C85.4496 107.893 86.4554 106.887 87.6966 106.887C88.9389 106.887 89.9448 107.893 89.9448 109.135V120.241C89.9448 121.483 88.9389 122.489 87.6966 122.489Z" fill="#48D85C"/>
<path d="M98.9871 122.489C97.7448 122.489 96.7389 121.483 96.7389 120.241V109.135C96.7389 107.893 97.7448 106.887 98.9871 106.887C100.228 106.887 101.234 107.893 101.234 109.135V120.241C101.234 121.483 100.228 122.489 98.9871 122.489Z" fill="#F948B4"/>
<path d="M110.276 122.489C109.034 122.489 108.028 121.483 108.028 120.241V109.135C108.028 107.893 109.034 106.887 110.276 106.887C111.518 106.887 112.523 107.893 112.523 109.135V120.241C112.523 121.483 111.518 122.489 110.276 122.489Z" fill="#FBB362"/>
<path d="M112.174 113.668H108.353C107.111 113.668 106.105 112.662 106.105 111.42C106.105 110.178 107.111 109.172 108.353 109.172H112.174C113.416 109.172 114.422 110.178 114.422 111.42C114.422 112.662 113.416 113.668 112.174 113.668Z" fill="#FACE7A"/>
<path d="M100.897 117.002H97.0762C95.8339 117.002 94.828 115.996 94.828 114.755C94.828 113.512 95.8339 112.507 97.0762 112.507H100.897C102.139 112.507 103.145 113.512 103.145 114.755C103.145 115.996 102.139 117.002 100.897 117.002Z" fill="#F6159C"/>
<path d="M89.6077 120.204H85.7869C84.5446 120.204 83.5387 119.197 83.5387 117.955C83.5387 116.713 84.5446 115.707 85.7869 115.707H89.6077C90.8489 115.707 91.8558 116.713 91.8558 117.955C91.8558 119.197 90.8489 120.204 89.6077 120.204Z" fill="#A2EC00"/>
<path d="M108.863 36.485H99.8775C98.6363 36.485 97.6294 35.4792 97.6294 34.2369C97.6294 32.9957 98.6363 31.9899 99.8775 31.9899H108.863C110.106 31.9899 111.111 32.9957 111.111 34.2369C111.111 35.4792 110.106 36.485 108.863 36.485Z" fill="#4374D3"/>
<path d="M104.37 34.2369C104.37 32.9957 105.377 31.9899 106.619 31.9899H99.8775C98.6363 31.9899 97.6294 32.9957 97.6294 34.2369C97.6294 35.4792 98.6363 36.485 99.8775 36.485H106.619C105.377 36.485 104.37 35.4792 104.37 34.2369Z" fill="#3957C9"/>
<path d="M117.85 45.3667H99.8775C98.6363 45.3667 97.6294 44.3609 97.6294 43.1186C97.6294 41.8774 98.6363 40.8715 99.8775 40.8715H117.85C119.091 40.8715 120.097 41.8774 120.097 43.1186C120.097 44.3609 119.091 45.3667 117.85 45.3667Z" fill="#4374D3"/>
<path d="M117.85 54.2495H99.8775C98.6363 54.2495 97.6294 53.2425 97.6294 52.0014C97.6294 50.7591 98.6363 49.7532 99.8775 49.7532H117.85C119.091 49.7532 120.097 50.7591 120.097 52.0014C120.097 53.2425 119.091 54.2495 117.85 54.2495Z" fill="#4374D3"/>
<path d="M117.85 63.1312H99.8775C98.6363 63.1312 97.6294 62.1242 97.6294 60.883C97.6294 59.6407 98.6363 58.6349 99.8775 58.6349H117.85C119.091 58.6349 120.097 59.6407 120.097 60.883C120.097 62.1242 119.091 63.1312 117.85 63.1312Z" fill="#4374D3"/>
<path d="M117.85 72.0129H99.8775C98.6363 72.0129 97.6294 71.0059 97.6294 69.7647C97.6294 68.5224 98.6363 67.5166 99.8775 67.5166H117.85C119.091 67.5166 120.097 68.5224 120.097 69.7647C120.097 71.0059 119.091 72.0129 117.85 72.0129Z" fill="#4374D3"/>
<path d="M108.863 43.1197C108.863 41.8774 109.87 40.8715 111.111 40.8715H99.8775C98.6363 40.8715 97.6294 41.8774 97.6294 43.1197C97.6294 44.3609 98.6363 45.3678 99.8775 45.3678H111.111C109.87 45.3667 108.863 44.3609 108.863 43.1197Z" fill="#3957C9"/>
<path d="M108.863 52.0014C108.863 50.7591 109.87 49.7532 111.111 49.7532H99.8775C98.6363 49.7532 97.6294 50.7591 97.6294 52.0014C97.6294 53.2425 98.6363 54.2495 99.8775 54.2495H111.111C109.87 54.2495 108.863 53.2425 108.863 52.0014Z" fill="#3957C9"/>
<path d="M108.863 60.883C108.863 59.6407 109.87 58.6349 111.111 58.6349H99.8775C98.6363 58.6349 97.6294 59.6407 97.6294 60.883C97.6294 62.1242 98.6363 63.1312 99.8775 63.1312H111.111C109.87 63.1312 108.863 62.1242 108.863 60.883Z" fill="#3957C9"/>
<path d="M108.863 69.7647C108.863 68.5224 109.87 67.5166 111.111 67.5166H99.8775C98.6363 67.5166 97.6294 68.5224 97.6294 69.7647C97.6294 71.0059 98.6363 72.0128 99.8775 72.0128H111.111C109.87 72.0128 108.863 71.0059 108.863 69.7647Z" fill="#3957C9"/>
<path d="M35.8334 68.4851C33.2775 68.4851 31.4898 67.6252 30.5044 65.919C28.4599 62.3788 31.8372 58.5806 32.9471 57.3326C34.9395 55.0924 37.9514 52.5128 41.6579 49.8732C43.1854 48.7859 45.3034 49.1411 46.3907 50.6685C47.4791 52.196 47.1227 54.3151 45.5953 55.4024C41.7575 58.1359 39.4392 60.2777 38.1222 61.7327C39.3826 62.0948 40.3704 63.173 40.5514 64.5556C40.7935 66.4146 39.4833 68.1185 37.6255 68.3606C36.9919 68.4432 36.3934 68.4851 35.8334 68.4851Z" fill="#C78FE8"/>
<path d="M59.6668 46.7289C58.3837 46.7289 57.1573 45.998 56.5836 44.758C55.7973 43.0575 56.5384 41.0401 58.24 40.2527C62.4659 38.2987 66.2901 36.9285 69.3008 36.2893C71.1326 35.8989 72.9361 37.0711 73.3253 38.904C73.7145 40.738 72.5435 42.5404 70.7106 42.9296C68.2249 43.4569 64.8068 44.6946 61.089 46.4144C60.6273 46.6271 60.1431 46.7289 59.6668 46.7289Z" fill="#C78FE8"/>
<path d="M65.4472 45.0046C61.7701 38.6359 53.6273 36.4533 47.2585 40.1305C40.8897 43.8076 38.7072 51.9516 42.3843 58.3204C46.0614 64.6891 54.2054 66.8705 60.5742 63.1934C66.943 59.5163 69.1244 51.3734 65.4472 45.0046Z" fill="#F948B4"/>
<path d="M64.7468 57.4322C59.7674 60.3071 53.4009 58.6009 50.5259 53.6216C47.651 48.6422 49.3572 42.2756 54.3366 39.4007C54.9453 39.0488 55.5766 38.7671 56.2181 38.5499C53.2447 38.026 50.0779 38.5046 47.2595 40.1316C40.8907 43.8087 38.7082 51.9527 42.3853 58.3215C46.0625 64.6903 54.2065 66.8728 60.5752 63.1957C63.3936 61.5675 65.3906 59.0648 66.4247 56.2284C65.9156 56.6753 65.3566 57.0803 64.7468 57.4322Z" fill="#F6159C"/>
<path d="M37.1808 68.39C35.5029 68.39 34.0434 67.1443 33.8205 65.4348C33.5772 63.577 34.8863 61.873 36.7452 61.6298C40.79 61.1014 48.0708 58.0647 55.296 53.8931C62.8302 49.5428 67.7224 45.5534 70.1641 42.9998C68.5269 43.071 67.0357 41.9645 66.6849 40.3138C66.2969 38.4797 67.4679 36.6785 69.3019 36.2893C70.9685 35.9352 76.0407 34.8592 78.1066 38.4367C80.3231 42.2768 76.3982 46.5626 73.254 49.4511C69.6425 52.7685 64.4707 56.4343 58.6903 59.772C50.509 64.4945 42.6343 67.7055 37.6254 68.3606C37.4761 68.3799 37.3279 68.39 37.1808 68.39Z" fill="#DCB1F3"/>
<path d="M126.157 83.5466H15.7686C12.5543 83.5466 9.93954 80.9307 9.93954 77.7163V11.674C9.93954 8.45964 12.5543 5.84492 15.7686 5.84492H126.157C129.371 5.84492 131.986 8.45964 131.986 11.674V77.7175C131.986 80.9318 129.371 83.5466 126.157 83.5466ZM15.7686 10.3401C15.0332 10.3401 14.4358 10.9386 14.4358 11.674V77.7175C14.4358 78.4518 15.0332 79.0503 15.7686 79.0503H126.157C126.893 79.0503 127.49 78.4518 127.49 77.7175V11.674C127.49 10.9386 126.893 10.3401 126.157 10.3401H15.7686Z" fill="#61B6FF"/>
<path d="M72.738 120.241H63.8122V109.135H72.738C73.9418 109.135 74.9182 110.111 74.9182 111.315V118.061C74.9182 119.264 73.9418 120.241 72.738 120.241Z" fill="#83D3FC"/>
<path d="M40.7426 109.135H52.7063V120.241H40.7426V109.135Z" fill="#83D3FC"/>
<path d="M41.599 120.241H32.6743C31.4693 120.241 30.4929 119.264 30.4929 118.061V111.315C30.4929 110.111 31.4693 109.135 32.6743 109.135H41.599V120.241Z" fill="#B9E9FD"/>
<path d="M30.493 79.0503H15.7686C15.0332 79.0503 14.4358 78.4518 14.4358 77.7175V11.674C14.4358 10.9386 15.0332 10.3401 15.7686 10.3401H30.493C28.7755 8.62144 29.4261 7.13588 29.9963 6.37896C30.1162 6.21943 30.1728 6.03161 30.1728 5.84492H15.7686C12.5543 5.84492 9.93954 8.45964 9.93954 11.674V77.7175C9.93954 80.9318 12.5543 83.5466 15.7686 83.5466H30.493C27.5671 81.329 30.493 79.0503 30.493 79.0503Z" fill="#5294E5"/>
</svg>
