<svg width="149" height="153" viewBox="0 0 149 153" fill="none" xmlns="http://www.w3.org/2000/svg">
<path d="M148.759 77.7187C148.759 118.797 115.458 152.098 74.3793 152.098C33.3007 152.098 0 118.797 0 77.7187C0 36.6401 33.3007 3.33948 74.3793 3.33948C115.458 3.33948 148.759 36.6401 148.759 77.7187Z" fill="#FDADE0"/>
<path d="M104.865 109.292C104.865 125.613 91.5864 138.892 75.2648 138.892C74.0074 138.892 72.9879 137.872 72.9879 136.615C72.9879 135.357 74.0074 134.338 75.2648 134.338C89.0754 134.338 100.311 123.102 100.311 109.292C100.311 108.034 101.33 107.015 102.588 107.015C103.845 107.015 104.865 108.034 104.865 109.292ZM53.4064 135.097C52.149 135.097 51.1295 136.116 51.1295 137.374C51.1295 141.026 50.3435 144.499 48.9318 147.631C50.3605 148.151 51.8095 148.629 53.2774 149.062C54.8251 145.475 55.683 141.523 55.683 137.374C55.6833 136.116 54.6642 135.097 53.4064 135.097Z" fill="#FC5E93"/>
<path d="M142.108 69.347C132.731 84.8737 121.251 97.5801 108.326 106.496C109.414 106.957 110.178 108.035 110.178 109.292C110.178 110.969 108.818 112.328 107.142 112.328H98.034C96.3573 112.328 94.9981 110.969 94.9981 109.292C94.9981 108.035 95.7616 106.957 96.8497 106.496C83.9247 97.5801 72.4445 84.8737 63.0682 69.347C44.7338 38.986 66.4589 0.102309 101.926 0.000910767C102.147 0.000303589 102.367 0 102.588 0C102.808 0 103.029 0.000303589 103.249 0.000910767C138.717 0.102309 160.442 38.986 142.108 69.347Z" fill="#013F69"/>
<path d="M142.108 69.347C137.355 77.2169 132.062 84.3619 126.315 90.6565C124.412 90.9337 122.471 91.0766 120.5 91.0766C96.1882 91.0766 76.4795 69.3291 76.4795 42.5024C76.4795 24.2856 85.5674 8.41093 99.0137 0.097452C99.9736 0.0361271 100.945 0.00364307 101.927 0.000910766C102.147 0.000303589 102.367 0 102.588 0C102.808 0 103.029 0.000303589 103.249 0.000910766C138.717 0.102309 160.442 38.986 142.108 69.347Z" fill="#54469B"/>
<path d="M82.551 42.5024C82.551 34.1191 85.8561 27.323 89.933 27.323C94.0099 27.323 97.3151 34.1191 97.3151 42.5024C97.3151 50.8857 94.0099 57.6819 89.933 57.6819C85.8561 57.6819 82.551 50.8857 82.551 42.5024ZM115.243 57.6819C119.32 57.6819 122.625 50.8857 122.625 42.5024C122.625 34.1191 119.32 27.323 115.243 27.323C111.166 27.323 107.861 34.1191 107.861 42.5024C107.861 50.8857 111.166 57.6819 115.243 57.6819ZM117.775 70.8664C117.05 71.2651 116.287 71.6291 115.49 71.9588V71.4952C115.49 70.2377 114.471 69.2183 113.213 69.2183C111.956 69.2183 110.937 70.2377 110.937 71.4952V73.3987C108.986 73.8498 106.939 74.1358 104.865 74.2563V69.8254C104.865 68.568 103.845 67.5485 102.588 67.5485C101.33 67.5485 100.311 68.568 100.311 69.8254V74.2563C98.2371 74.1358 96.1894 73.8498 94.2391 73.3987V71.4952C94.2391 70.2377 93.2197 69.2183 91.9622 69.2183C90.7048 69.2183 89.6853 70.2377 89.6853 71.4952V71.9588C88.8893 71.6291 88.1255 71.2651 87.4011 70.8664C86.2991 70.2599 84.9147 70.6618 84.3084 71.7635C83.7022 72.8653 84.1038 74.2496 85.2056 74.8562C86.5969 75.6219 88.1009 76.2779 89.685 76.825V80.2993C89.685 81.5567 90.7044 82.5762 91.9619 82.5762C93.2194 82.5762 94.2388 81.5567 94.2388 80.2993V78.0579C96.2112 78.458 98.2517 78.7118 100.311 78.8193V81.969C100.311 83.2265 101.33 84.2459 102.588 84.2459C103.845 84.2459 104.864 83.2265 104.864 81.969V78.8193C106.923 78.7118 108.964 78.458 110.936 78.0579V80.2993C110.936 81.5567 111.956 82.5762 113.213 82.5762C114.471 82.5762 115.49 81.5567 115.49 80.2993V76.825C117.074 76.2779 118.578 75.6219 119.97 74.8562C121.071 74.2499 121.473 72.8653 120.867 71.7635C120.261 70.6618 118.877 70.2605 117.775 70.8664Z" fill="#012D4E"/>
<path d="M123.817 22.5949C116.26 18.716 110.126 23.1487 106.439 18.6507C104.531 16.3243 104.026 12.5203 105.576 10.1463C107.555 7.11341 112.336 7.25852 114.08 7.31135C126.101 7.67596 138.155 20.301 137.621 30.606C137.581 31.392 137.44 34.0964 136.142 34.5499C133.666 35.4155 131.466 26.5206 123.817 22.5949ZM137.197 36.4307C135.52 36.4307 134.161 37.7898 134.161 39.4666C134.161 41.1433 135.52 42.5025 137.197 42.5025C138.874 42.5025 140.233 41.1433 140.233 39.4666C140.233 37.7898 138.874 36.4307 137.197 36.4307Z" fill="#915CB3"/>
<path d="M90.3277 98.1821C81.5679 112.688 70.8424 124.559 58.7675 132.888C59.7842 133.319 60.4973 134.327 60.4973 135.5C60.4973 137.067 59.2274 138.337 57.6612 138.337H49.1525C47.586 138.337 46.3164 137.067 46.3164 135.5C46.3164 134.327 47.0295 133.319 48.0463 132.888C35.9713 124.559 25.2458 112.688 16.4861 98.1821C-0.643014 69.8175 19.6537 33.4904 52.7889 33.3957C52.9948 33.3951 53.2009 33.3948 53.407 33.3948C53.6132 33.3948 53.8193 33.3951 54.0251 33.3957C87.16 33.4904 107.456 69.8175 90.3277 98.1821Z" fill="#F52C2C"/>
<path d="M90.3277 98.1821C85.8877 105.534 80.9429 112.21 75.573 118.09C73.7955 118.349 71.9821 118.483 70.1406 118.483C47.4272 118.483 29.0146 98.1655 29.0146 73.1027C29.0146 56.0835 37.5051 41.2529 50.067 33.4862C51.3918 33.3192 53.8187 33.3954 54.0245 33.396C87.16 33.4904 107.456 69.8175 90.3277 98.1821Z" fill="#FC5426"/>
<path d="M96.4887 78.2692C96.1527 84.9736 94.1933 91.7807 90.3277 98.1822C90.1377 98.497 89.9464 98.8106 89.7542 99.123C83.2237 103.595 76.0936 107.657 68.5255 111.182C57.4627 116.335 46.1249 120.034 35.138 122.145C31.7961 118.846 28.6005 115.25 25.5686 111.383C50.6714 108.347 78.0664 95.5598 96.4887 78.2692ZM94.6545 63.6699C93.3985 59.5803 91.5415 55.6949 89.1616 52.1554C69.6894 71.4257 38.9872 85.5162 11.8461 87.5362C12.8664 91.1499 14.398 94.7249 16.4855 98.1819C16.6947 98.5286 16.9054 98.8735 17.117 99.2168C30.7681 97.6354 45.2569 93.4368 59.3028 86.8945C72.7806 80.6171 84.8686 72.6385 94.6545 63.6699ZM77.9325 40.7717C74.3274 38.289 70.2878 36.3402 65.8952 35.0706C51.0397 47.0299 31.9852 56.2529 13.207 60.6562C11.6001 64.7807 10.618 69.1624 10.3481 73.6446C21.4559 71.5462 32.9303 67.8212 44.1233 62.6076C56.9014 56.6558 68.4305 49.1754 77.9325 40.7717Z" fill="#FC5426"/>
<path d="M96.4887 78.2692C96.1526 84.9736 94.1933 91.7807 90.3277 98.1822C90.1376 98.497 89.9464 98.8106 89.7542 99.123C83.2237 103.595 76.0936 107.657 68.5255 111.182C64.6523 112.986 60.7451 114.612 56.8312 116.054C51.9049 114.195 47.3996 111.334 43.5161 107.691C63.0624 102.082 82.3995 91.4926 96.4887 78.2692ZM77.9325 40.7717C74.3273 38.289 70.2878 36.3402 65.8952 35.0706C56.1891 42.8844 44.6907 49.5299 32.6479 54.4265C30.844 58.8289 29.6582 63.6061 29.2128 68.6226C34.2008 66.9147 39.1894 64.9061 44.1236 62.6076C56.9013 56.6558 68.4304 49.1754 77.9325 40.7717ZM94.6544 63.6699C93.3985 59.5803 91.5414 55.6949 89.1616 52.1554C74.0192 67.1408 52.0855 78.9939 30.3167 84.4739C31.2639 88.5247 32.7053 92.3563 34.5657 95.8858C42.793 93.7197 51.1228 90.7045 59.3027 86.8948C72.7806 80.6171 84.8685 72.6385 94.6544 63.6699Z" fill="#FD9D01"/>
<path d="M73.7068 57.2984C66.6463 53.6745 60.9157 57.8158 57.4709 53.6138C55.6891 51.4404 55.217 47.8866 56.6649 45.6686C58.514 42.8352 62.9807 42.9709 64.6101 43.0201C75.8407 43.3607 87.1021 55.1557 86.6033 64.7828C86.5653 65.5172 86.4342 68.0437 85.2216 68.4675C82.908 69.2762 80.853 60.9664 73.7068 57.2984ZM86.2071 70.2247C84.6406 70.2247 83.371 71.4946 83.371 73.0611C83.371 74.6276 84.6406 75.8972 86.2071 75.8972C87.7736 75.8972 89.0432 74.6273 89.0432 73.0608C89.0432 71.4943 87.7736 70.2247 86.2071 70.2247Z" fill="#FDB44C"/>
<path d="M64.6104 43.0203C67.3658 43.1038 70.123 43.8771 72.7077 45.1382C68.3876 48.5533 63.7282 51.7828 58.7888 54.7817C58.3185 54.4915 57.8789 54.1111 57.4712 53.6138C55.6894 51.4404 55.2173 47.8866 56.6652 45.6686C58.5143 42.8355 62.981 42.9709 64.6104 43.0203ZM85.2216 68.4678C86.4345 68.044 86.5653 65.5175 86.6033 64.7831C86.7432 62.0845 85.9588 59.2156 84.5103 56.4763C82.6439 58.1072 80.6988 59.6934 78.6848 61.2302C82.0406 64.9501 83.565 69.0467 85.2216 68.4678ZM86.2071 70.2246C84.7177 70.2246 83.4967 71.3725 83.3801 72.8319C84.5371 71.9955 85.6734 71.146 86.7882 70.2844C86.6005 70.2453 86.4062 70.2246 86.2071 70.2246Z" fill="#FDCB6B"/>
<path d="M90.7731 12.9025C90.7731 14.9985 89.0742 16.6974 86.9782 16.6974C84.8822 16.6974 83.1833 14.9985 83.1833 12.9025C83.1833 10.8065 84.8822 9.10767 86.9782 9.10767C89.0742 9.10767 90.7731 10.8065 90.7731 12.9025Z" fill="#FDB44C"/>
<path d="M86.2192 123.712C86.2192 125.808 84.5204 127.507 82.4244 127.507C80.3284 127.507 78.6295 125.808 78.6295 123.712C78.6295 121.616 80.3284 119.918 82.4244 119.918C84.5204 119.918 86.2192 121.616 86.2192 123.712Z" fill="#FC5426"/>
<path d="M17.9117 56.9229C17.9117 59.0189 16.2129 60.7178 14.1169 60.7178C12.0209 60.7178 10.322 59.0189 10.322 56.9229C10.322 54.8269 12.0209 53.1281 14.1169 53.1281C16.2129 53.1281 17.9117 54.8269 17.9117 56.9229Z" fill="#002C5D"/>
<path d="M15.6348 88.0407C15.6348 90.1367 13.9359 91.8356 11.84 91.8356C9.74399 91.8356 8.0451 90.1367 8.0451 88.0407C8.0451 85.9447 9.74399 84.2458 11.84 84.2458C13.9359 84.2458 15.6348 85.9447 15.6348 88.0407Z" fill="#FFF5F5"/>
<path d="M69.5218 111.569C69.5218 113.665 67.823 115.364 65.727 115.364C63.631 115.364 61.9321 113.665 61.9321 111.569C61.9321 109.473 63.631 107.774 65.727 107.774C67.823 107.774 69.5218 109.473 69.5218 111.569ZM137.07 95.6305C134.974 95.6305 133.275 97.3294 133.275 99.4253C133.275 101.521 134.974 103.22 137.07 103.22C139.166 103.22 140.865 101.521 140.865 99.4253C140.865 97.3294 139.166 95.6305 137.07 95.6305ZM49.0296 21.2512C46.9336 21.2512 45.2347 22.9501 45.2347 25.0461C45.2347 27.1421 46.9336 28.8409 49.0296 28.8409C51.1256 28.8409 52.8245 27.1421 52.8245 25.0461C52.8245 22.9501 51.1256 21.2512 49.0296 21.2512Z" fill="#FCF498"/>
<path d="M121.132 123.712C121.132 125.808 119.433 127.507 117.337 127.507C115.241 127.507 113.542 125.808 113.542 123.712C113.542 121.616 115.241 119.918 117.337 119.918C119.433 119.918 121.132 121.616 121.132 123.712ZM29.466 18.4257C30.1619 19.2266 31.188 19.7333 32.3322 19.7333C34.4282 19.7333 36.1271 18.0344 36.1271 15.9384C36.1271 15.303 35.9707 14.7046 35.6948 14.1785C33.5444 15.4903 31.4658 16.9087 29.466 18.4257Z" fill="#915CB3"/>
</svg>
