<svg width="164" height="164" viewBox="0 0 164 164" fill="none" xmlns="http://www.w3.org/2000/svg">
<path d="M164 82C164 118.868 139.668 150.051 106.187 160.372C105.063 159.609 103.707 159.162 102.246 159.162C99.6005 159.162 97.2978 160.626 96.1011 162.788C91.5194 163.582 86.8089 164 82 164C36.7126 164 0 127.287 0 82C0 36.7126 36.7126 0 82 0C127.287 0 164 36.7126 164 82Z" fill="#E6A0FA"/>
<path d="M128.766 73.6719V149.359C121.924 154.117 114.324 157.858 106.183 160.369C105.06 159.608 103.705 159.162 102.246 159.162C99.5999 159.162 97.2965 160.627 96.1002 162.789C91.5194 163.584 86.8085 164 82 164C64.6163 164 48.4998 158.586 35.2344 149.359V73.6719C35.2344 61.0503 44.362 50.5677 56.375 48.446V41.6406H56.0547C53.4012 41.6406 51.25 39.4894 51.25 36.8359C51.25 35.6037 51.718 34.4832 52.4806 33.6328C51.718 32.7824 51.25 31.6619 51.25 30.4297C51.25 27.7762 53.4012 25.625 56.0547 25.625H107.945C110.599 25.625 112.75 27.7762 112.75 30.4297C112.75 31.6619 112.282 32.7824 111.519 33.6328C112.282 34.4832 112.75 35.6037 112.75 36.8359C112.75 39.4894 110.599 41.6406 107.945 41.6406H107.625V48.446C119.638 50.5677 128.766 61.0503 128.766 73.6719Z" fill="#189681"/>
<path d="M96.948 45.0039C96.948 46.9203 95.3945 48.4738 93.4781 48.4738H69.0478C57.1044 50.6526 48.0469 61.0996 48.0469 73.6719V150.547C48.0469 152.786 48.3358 154.958 48.8755 157.028C44.068 154.903 39.5035 152.329 35.2344 149.359V73.6719C35.2344 61.0503 44.362 50.5677 56.375 48.446V41.6406H56.0547C53.4012 41.6406 51.25 39.4894 51.25 36.8359C51.25 35.6037 51.718 34.4832 52.4806 33.6328C51.718 32.7824 51.25 31.6619 51.25 30.4297C51.25 27.7762 53.4012 25.625 56.0547 25.625H68.8672C66.2137 25.625 64.0625 27.7762 64.0625 30.4297C64.0625 31.6619 64.5305 32.7824 65.2931 33.6328C64.5305 34.4832 64.0625 35.6037 64.0625 36.8359C64.0625 39.189 65.755 41.1432 67.9883 41.5567C68.1154 41.5426 68.2442 41.534 68.3752 41.534H93.4778C95.3942 41.534 96.948 43.0875 96.948 45.0039Z" fill="#0F7D73"/>
<path d="M76.875 115.312C76.875 124.158 69.7045 131.328 60.8594 131.328C52.0143 131.328 44.8438 124.158 44.8438 115.312C44.8438 106.467 52.0143 99.2969 60.8594 99.2969C69.7045 99.2969 76.875 106.467 76.875 115.312ZM99.2969 99.2969C111.68 99.2969 121.719 89.2583 121.719 76.875C121.719 64.4917 111.68 54.4531 99.2969 54.4531C86.9136 54.4531 76.875 64.4917 76.875 76.875C76.875 89.2583 86.9136 99.2969 99.2969 99.2969ZM99.2969 131.328C86.9136 131.328 76.875 141.367 76.875 153.75C76.875 157.426 77.7651 160.891 79.3328 163.952C80.2187 163.98 81.1073 164 82 164C86.8085 164 91.5197 163.583 96.1008 162.789C97.2972 160.626 99.6005 159.162 102.246 159.162C103.706 159.162 105.061 159.608 106.184 160.37C111.625 158.691 116.826 156.464 121.719 153.75C121.718 141.366 111.68 131.328 99.2969 131.328Z" fill="#35AF94"/>
<path d="M67.7189 115.317C67.7189 119.108 64.6458 122.181 60.8549 122.181C57.064 122.181 53.991 119.108 53.991 115.317C53.991 111.526 57.064 108.453 60.8549 108.453C64.6458 108.453 67.7189 111.526 67.7189 115.317ZM99.2924 144.145C93.9852 144.145 89.6831 148.448 89.6831 153.754C89.6831 157.922 92.3372 161.469 96.047 162.801C99.5381 162.198 102.955 161.377 106.279 160.348C107.904 158.627 108.902 156.308 108.902 153.754C108.902 148.447 104.6 144.145 99.2924 144.145ZM99.2924 86.4889C104.6 86.4889 108.902 82.1864 108.902 76.8795C108.902 71.5725 104.6 67.2701 99.2924 67.2701C93.9852 67.2701 89.6831 71.5725 89.6831 76.8795C89.6831 82.1864 93.9855 86.4889 99.2924 86.4889Z" fill="#FFEF87"/>
<path d="M64.0625 80.0781C64.0625 81.8472 62.6285 83.2812 60.8594 83.2812C59.0903 83.2812 57.6562 81.8472 57.6562 80.0781C57.6562 78.309 59.0903 76.875 60.8594 76.875C62.6285 76.875 64.0625 78.309 64.0625 80.0781ZM115.312 80.0781C115.312 78.309 113.878 76.875 112.109 76.875C110.34 76.875 108.906 78.309 108.906 80.0781C108.906 81.8472 110.34 83.2812 112.109 83.2812C113.878 83.2812 115.312 81.8472 115.312 80.0781ZM88.0859 52.8516C86.3169 52.8516 84.8828 54.2856 84.8828 56.0547C84.8828 57.8238 86.3169 59.2578 88.0859 59.2578C89.855 59.2578 91.2891 57.8238 91.2891 56.0547C91.2891 54.2856 89.855 52.8516 88.0859 52.8516ZM115.312 121.719C113.543 121.719 112.109 123.153 112.109 124.922C112.109 126.691 113.543 128.125 115.312 128.125C117.082 128.125 118.516 126.691 118.516 124.922C118.516 123.153 117.082 121.719 115.312 121.719ZM83.2812 134.531C81.5122 134.531 80.0781 135.965 80.0781 137.734C80.0781 139.503 81.5122 140.938 83.2812 140.938C85.0503 140.938 86.4844 139.503 86.4844 137.734C86.4844 135.965 85.0503 134.531 83.2812 134.531ZM99.2969 108.906C97.5278 108.906 96.0938 110.34 96.0938 112.109C96.0938 113.878 97.5278 115.312 99.2969 115.312C101.066 115.312 102.5 113.878 102.5 112.109C102.5 110.34 101.066 108.906 99.2969 108.906Z" fill="#FFF9C8"/>
<path d="M110.828 0H53.1719C40.8085 0 30.75 10.0585 30.75 22.4219C30.75 25.9543 33.6238 28.8281 37.1562 28.8281H126.844C130.376 28.8281 133.25 25.9543 133.25 22.4219C133.25 10.0585 123.192 0 110.828 0ZM37.1562 22.4219C37.1562 13.5909 45.3018 6.40625 54.1328 6.40625H109.867C118.698 6.40625 126.844 13.5909 126.844 22.4219H37.1562Z" fill="#384E64"/>
<path d="M114.031 35.2344H49.9688C48.1997 35.2344 46.7656 33.8003 46.7656 32.0312V19.2188C46.7656 17.4497 48.1997 16.0156 49.9688 16.0156H114.031C115.8 16.0156 117.234 17.4497 117.234 19.2188V32.0312C117.234 33.8003 115.8 35.2344 114.031 35.2344Z" fill="#3C5D78"/>
<path d="M67.2656 35.2344H49.9688C48.1997 35.2344 46.7656 33.8003 46.7656 32.0312V19.2188C46.7656 17.4497 48.1997 16.0156 49.9688 16.0156H67.2656C65.4965 16.0156 64.0625 17.4497 64.0625 19.2188V32.0312C64.0625 33.8003 65.4965 35.2344 67.2656 35.2344Z" fill="#384E64"/>
</svg>
